# xmcd
# 
# Track frame offsets:
#     150
#     12458
#     26430
#     38793
#     50483
#     61345
#     72868
#     83413
#     95968
#     109885
#     120158
#     132883
#     144245
#     154313
#     169165
#     184185
#     197985
#     209078
# 
# Disc length: 2944
# 
# Revision: 4
# Processed by: cddbd v1.5.2PL0 Copyright (c) Steve Scherf et al.
# Submitted via: fre:ac v1.0.31
# 
DISCID=000b7e12
DTITLE=Columbia Blues - sonny Terry and Brownie McGhee Hometown Blues
DYEAR=1993
DGENRE=Blues
TTITLE0=Mean Old Frisco
TTITLE1=Man Ain't Nothin' But A Fool
TTITLE2=The Woman Is Killing Me
TTITLE3=Meet You In The Morning
TTITLE4=Stranger Blues
TTITLE5=Feel So Good
TTITLE6=Forgive Me
TTITLE7=Sittin' On Top Of The World
TTITLE8=Crying The Blues
TTITLE9=Key To The Highway
TTITLE10=Ease My Worried Mind
TTITLE11=Bulldog Blues
TTITLE12=C.C. Rider-Where Did She Go
TTITLE13=Going Down Slow
TTITLE14=Bad Blood
TTITLE15=Lightnin's Blues
TTITLE16=Dissatisfied Woman
TTITLE17=Pawn Shop Blues
EXTD=
EXTT0=
EXTT1=
EXTT2=
EXTT3=
EXTT4=
EXTT5=
EXTT6=
EXTT7=
EXTT8=
EXTT9=
EXTT10=
EXTT11=
EXTT12=
EXTT13=
EXTT14=
EXTT15=
EXTT16=
EXTT17=
PLAYORDER=
